<svg width="20" height="20" viewBox="0 0 20 20" fill="none" xmlns="http://www.w3.org/2000/svg">
<path d="M19 8.897V5.922C19 5.39157 18.7893 4.88286 18.4142 4.50779C18.0391 4.13271 17.5304 3.922 17 3.922H11V2.61C11.305 2.336 11.5 1.942 11.5 1.5C11.5 1.10218 11.342 0.720644 11.0607 0.43934C10.7794 0.158035 10.3978 0 10 0C9.60218 0 9.22064 0.158035 8.93934 0.43934C8.65804 0.720644 8.5 1.10218 8.5 1.5C8.5 1.942 8.695 2.336 9 2.61V3.922H3C2.46957 3.922 1.96086 4.13271 1.58579 4.50779C1.21071 4.88286 1 5.39157 1 5.922V8.92L0.928 8.925C0.675973 8.94319 0.440176 9.05612 0.268018 9.24108C0.0958586 9.42604 0.000102245 9.66932 0 9.922V11.922C0 12.1872 0.105357 12.4416 0.292893 12.6291C0.48043 12.8166 0.734784 12.922 1 12.922V17.922C1 18.4524 1.21071 18.9611 1.58579 19.3362C1.96086 19.7113 2.46957 19.922 3 19.922H17C17.5304 19.922 18.0391 19.7113 18.4142 19.3362C18.7893 18.9611 19 18.4524 19 17.922V12.922C19.2652 12.922 19.5196 12.8166 19.7071 12.6291C19.8946 12.4416 20 12.1872 20 11.922V9.984C20.0117 9.8288 19.9871 9.673 19.928 9.529C19.726 9.041 19.293 8.924 19 8.897ZM5 9.922C5 8.818 5.672 7.922 6.5 7.922C7.328 7.922 8 8.818 8 9.922C8 11.026 7.328 11.922 6.5 11.922C5.672 11.922 5 11.026 5 9.922ZM13.998 15.922C12.997 15.919 6 15.922 6 15.922V13.922C6 13.922 13.001 13.92 14.002 13.922L13.998 15.922ZM13.5 11.922C12.672 11.922 12 11.026 12 9.922C12 8.818 12.672 7.922 13.5 7.922C14.328 7.922 15 8.818 15 9.922C15 11.026 14.328 11.922 13.5 11.922Z" fill="#2563EB"/>
</svg>
