<svg width="17" height="17" viewBox="0 0 17 17" fill="none" xmlns="http://www.w3.org/2000/svg">
<path d="M8.5 0.5C9.56087 0.5 10.5783 0.921427 11.3284 1.67157C12.0786 2.42172 12.5 3.43913 12.5 4.5C12.5 5.56087 12.0786 6.57828 11.3284 7.32843C10.5783 8.07857 9.56087 8.5 8.5 8.5C7.43913 8.5 6.42172 8.07857 5.67157 7.32843C4.92143 6.57828 4.5 5.56087 4.5 4.5C4.5 3.43913 4.92143 2.42172 5.67157 1.67157C6.42172 0.921427 7.43913 0.5 8.5 0.5ZM8.5 2.5C7.96957 2.5 7.46086 2.71071 7.08579 3.08579C6.71071 3.46086 6.5 3.96957 6.5 4.5C6.5 5.03043 6.71071 5.53914 7.08579 5.91421C7.46086 6.28929 7.96957 6.5 8.5 6.5C9.03043 6.5 9.53914 6.28929 9.91421 5.91421C10.2893 5.53914 10.5 5.03043 10.5 4.5C10.5 3.96957 10.2893 3.46086 9.91421 3.08579C9.53914 2.71071 9.03043 2.5 8.5 2.5ZM8.5 9.5C11.17 9.5 16.5 10.83 16.5 13.5V16.5H0.5V13.5C0.5 10.83 5.83 9.5 8.5 9.5ZM8.5 11.4C5.53 11.4 2.4 12.86 2.4 13.5V14.6H14.6V13.5C14.6 12.86 11.47 11.4 8.5 11.4Z" fill="white"/>
</svg>
