<svg width="16" height="17" viewBox="0 0 16 17" fill="none" xmlns="http://www.w3.org/2000/svg">
<path d="M4.20241 13.6952L4.78161 14.0336C5.75831 14.6034 6.86926 14.9024 8.00001 14.9C9.26581 14.9 10.5032 14.5246 11.5557 13.8214C12.6081 13.1182 13.4284 12.1186 13.9128 10.9492C14.3972 9.77972 14.524 8.49289 14.277 7.25142C14.0301 6.00994 13.4205 4.86957 12.5255 3.97451C11.6304 3.07946 10.4901 2.46992 9.24858 2.22297C8.00711 1.97603 6.72028 2.10277 5.55083 2.58717C4.38139 3.07157 3.38185 3.89187 2.6786 4.94435C1.97536 5.99682 1.60001 7.23419 1.60001 8.49999C1.59768 9.63108 1.89703 10.7423 2.46721 11.7192L2.80481 12.2984L2.28241 14.2192L4.20241 13.6952ZM0.00321236 16.5L1.08481 12.5256C0.371979 11.3039 -0.0024653 9.91441 1.22149e-05 8.49999C1.22149e-05 4.0816 3.58161 0.5 8.00001 0.5C12.4184 0.5 16 4.0816 16 8.49999C16 12.9184 12.4184 16.5 8.00001 16.5C6.58621 16.5024 5.19727 16.1283 3.97601 15.416L0.00321236 16.5ZM5.11281 4.7464C5.22054 4.73893 5.32801 4.73786 5.43521 4.7432C5.47841 4.7464 5.52161 4.75066 5.56481 4.756C5.69201 4.7704 5.83201 4.848 5.87921 4.9552C6.11761 5.49653 6.34907 6.04053 6.57361 6.5872C6.62321 6.7088 6.59361 6.8648 6.49921 7.0168C6.45121 7.0944 6.37601 7.20319 6.28881 7.31439C6.19841 7.43039 6.00401 7.64319 6.00401 7.64319C6.00401 7.64319 5.92481 7.73759 5.95521 7.85519C5.96641 7.89999 6.00321 7.96479 6.03681 8.01919L6.08401 8.09519C6.28881 8.43679 6.56401 8.78319 6.90001 9.10959C6.99601 9.20239 7.08961 9.29759 7.19041 9.38639C7.56481 9.71679 7.98881 9.98639 8.44641 10.1864L8.45041 10.188C8.51841 10.2176 8.55281 10.2336 8.65201 10.276C8.70161 10.2968 8.75254 10.3144 8.80481 10.3288C8.82401 10.3341 8.84347 10.3371 8.86321 10.3376C8.90882 10.3393 8.95417 10.3299 8.99531 10.3101C9.03644 10.2903 9.07211 10.2607 9.09921 10.224C9.67761 9.52319 9.73121 9.47759 9.73521 9.47759V9.47919C9.77538 9.44158 9.82318 9.41303 9.87536 9.39551C9.92753 9.37798 9.98286 9.37187 10.0376 9.37759C10.0867 9.37973 10.1339 9.39039 10.1792 9.40959C10.604 9.60399 11.2992 9.90719 11.2992 9.90719L11.7648 10.116C11.8432 10.1536 11.9144 10.2424 11.9168 10.328C11.92 10.3816 11.9248 10.468 11.9064 10.6264C11.8808 10.8336 11.8184 11.0824 11.756 11.2128C11.7128 11.3015 11.6561 11.383 11.588 11.4544C11.5072 11.5391 11.4188 11.6162 11.324 11.6848C11.2579 11.7339 11.2245 11.7579 11.224 11.7568C11.1245 11.8199 11.0223 11.8787 10.9176 11.9328C10.7115 12.042 10.4841 12.1048 10.2512 12.1168C10.1032 12.1248 9.95521 12.136 9.80641 12.128C9.80001 12.128 9.35201 12.0584 9.35201 12.0584C8.21463 11.7592 7.16275 11.1987 6.28001 10.4216C6.09921 10.2624 5.93121 10.0912 5.76001 9.92079C5.04961 9.21279 4.51121 8.44879 4.18401 7.7272C4.01801 7.37297 3.92808 6.9879 3.92001 6.5968C3.917 6.11099 4.07606 5.63806 4.37201 5.2528C4.43041 5.1776 4.48561 5.0992 4.58081 5.0088C4.68161 4.9128 4.74641 4.8616 4.81601 4.8264C4.90884 4.7808 5.00963 4.75363 5.11281 4.7464Z" fill="white"/>
</svg>
