<svg width="16" height="18" viewBox="0 0 16 18" fill="none" xmlns="http://www.w3.org/2000/svg">
<path d="M14.875 0C15.4949 0 16 0.505125 16 1.125V16.875C16 17.4949 15.4949 18 14.875 18H11.5C10.8801 18 10.375 17.4949 10.375 16.875V11.3906L2.39425 17.7188C1.94088 17.9471 1.38513 17.91 0.953125 17.6479C0.518875 17.3869 0.25 16.9166 0.25 16.4182V1.58175C0.25 1.08338 0.518875 0.61425 0.953125 0.352125C1.18706 0.212473 1.45468 0.139343 1.72712 0.140625C1.95212 0.140625 2.18613 0.17775 2.39425 0.28125L10.375 6.60938V1.125C10.375 0.505125 10.8801 0 11.5 0H14.875Z" fill="#6B00E0"/>
</svg>
