<svg width="17" height="16" viewBox="0 0 17 16" fill="none" xmlns="http://www.w3.org/2000/svg">
<path d="M4.70241 13.1952L5.28161 13.5336C6.25831 14.1034 7.36926 14.4024 8.50001 14.4C9.76581 14.4 11.0032 14.0246 12.0557 13.3214C13.1081 12.6182 13.9284 11.6186 14.4128 10.4492C14.8972 9.27972 15.024 7.99289 14.777 6.75142C14.5301 5.50994 13.9205 4.36957 13.0255 3.47451C12.1304 2.57946 10.9901 1.96992 9.74858 1.72297C8.50711 1.47603 7.22028 1.60277 6.05083 2.08717C4.88139 2.57157 3.88185 3.39187 3.1786 4.44435C2.47536 5.49682 2.10001 6.73419 2.10001 7.99999C2.09768 9.13108 2.39703 10.2423 2.96721 11.2192L3.30481 11.7984L2.78241 13.7192L4.70241 13.1952ZM0.503212 16L1.58481 12.0256C0.871979 10.8039 0.497535 9.41441 0.500012 7.99999C0.500012 3.5816 4.08161 0 8.50001 0C12.9184 0 16.5 3.5816 16.5 7.99999C16.5 12.4184 12.9184 16 8.50001 16C7.08621 16.0024 5.69727 15.6283 4.47601 14.916L0.503212 16ZM5.61281 4.2464C5.72054 4.23893 5.82801 4.23786 5.93521 4.2432C5.97841 4.2464 6.02161 4.25066 6.06481 4.256C6.19201 4.2704 6.33201 4.348 6.37921 4.4552C6.61761 4.99653 6.84907 5.54053 7.07361 6.0872C7.12321 6.2088 7.09361 6.3648 6.99921 6.5168C6.95121 6.5944 6.87601 6.70319 6.78881 6.81439C6.69841 6.93039 6.50401 7.14319 6.50401 7.14319C6.50401 7.14319 6.42481 7.23759 6.45521 7.35519C6.46641 7.39999 6.50321 7.46479 6.53681 7.51919L6.58401 7.59519C6.78881 7.93679 7.06401 8.28319 7.40001 8.60959C7.49601 8.70239 7.58961 8.79759 7.69041 8.88639C8.06481 9.21679 8.48881 9.48639 8.94641 9.68639L8.95041 9.68799C9.01841 9.71759 9.05281 9.73359 9.15201 9.77599C9.20161 9.79679 9.25254 9.81439 9.30481 9.82879C9.32401 9.83413 9.34347 9.83706 9.36321 9.83759C9.40882 9.83933 9.45417 9.82989 9.49531 9.81009C9.53644 9.79029 9.57211 9.76073 9.59921 9.72399C10.1776 9.02319 10.2312 8.97759 10.2352 8.97759V8.97919C10.2754 8.94158 10.3232 8.91303 10.3754 8.89551C10.4275 8.87798 10.4829 8.87187 10.5376 8.87759C10.5867 8.87973 10.6339 8.89039 10.6792 8.90959C11.104 9.10399 11.7992 9.40719 11.7992 9.40719L12.2648 9.61599C12.3432 9.65359 12.4144 9.74239 12.4168 9.82799C12.42 9.88159 12.4248 9.96799 12.4064 10.1264C12.3808 10.3336 12.3184 10.5824 12.256 10.7128C12.2128 10.8015 12.1561 10.883 12.088 10.9544C12.0072 11.0391 11.9188 11.1162 11.824 11.1848C11.7579 11.2339 11.7245 11.2579 11.724 11.2568C11.6245 11.3199 11.5223 11.3787 11.4176 11.4328C11.2115 11.542 10.9841 11.6048 10.7512 11.6168C10.6032 11.6248 10.4552 11.636 10.3064 11.628C10.3 11.628 9.85201 11.5584 9.85201 11.5584C8.71463 11.2592 7.66275 10.6987 6.78001 9.92159C6.59921 9.76239 6.43121 9.59119 6.26001 9.42079C5.54961 8.71279 5.01121 7.94879 4.68401 7.2272C4.51801 6.87297 4.42808 6.4879 4.42001 6.0968C4.417 5.61099 4.57606 5.13806 4.87201 4.7528C4.93041 4.6776 4.98561 4.5992 5.08081 4.5088C5.18161 4.4128 5.24641 4.3616 5.31601 4.3264C5.40884 4.2808 5.50963 4.25363 5.61281 4.2464Z" fill="black"/>
</svg>
