<svg width="49" height="49" viewBox="0 0 49 49" fill="none" xmlns="http://www.w3.org/2000/svg">
<circle cx="24.5" cy="24.5" r="24.5" fill="#222222"/>
<path d="M29 23.9091L24.6364 28.2727L20.2727 23.9091L21.8 22.3818L23.5455 24.0727V19.5455H25.7273V24.0727L27.4727 22.3818L29 23.9091ZM22.4545 33.7273H26.8182V32.6364H22.4545V33.7273ZM19.1818 37C18.5818 37 18.0684 36.7865 17.6415 36.3596C17.2145 35.9327 17.0007 35.4189 17 34.8182V15.1818C17 14.5818 17.2138 14.0684 17.6415 13.6415C18.0691 13.2145 18.5825 13.0007 19.1818 13H30.0909C30.6909 13 31.2047 13.2138 31.6324 13.6415C32.06 14.0691 32.2735 14.5825 32.2727 15.1818V34.8182C32.2727 35.4182 32.0593 35.932 31.6324 36.3596C31.2055 36.7873 30.6916 37.0007 30.0909 37H19.1818ZM19.1818 29.3636H30.0909V18.4545H19.1818V29.3636Z" fill="white"/>
</svg>
