<svg width="112" height="22" viewBox="0 0 112 22" fill="none" xmlns="http://www.w3.org/2000/svg">
<g clip-path="url(#clip0_17_130)">
<path d="M4.7518 1.20168V21.7227H0.869446V1.20168H4.7518Z" fill="white"/>
<path d="M10.2056 3.88235C9.74339 3.46639 9.5123 2.91176 9.5123 2.26471C9.5123 1.61765 9.74339 1.06303 10.2056 0.647059C10.6678 0.231092 11.2224 0 11.9157 0C12.6089 0 13.1636 0.231092 13.6257 0.647059C14.0879 1.06303 14.319 1.61765 14.319 2.26471C14.319 2.91176 14.0879 3.46639 13.6257 3.88235C13.1636 4.29832 12.6089 4.52941 11.9157 4.52941C11.2686 4.52941 10.6678 4.34454 10.2056 3.88235ZM13.8568 6.37815V21.7227H9.97448V6.37815H13.8568Z" fill="white"/>
<path d="M32.0207 7.90337C33.1299 9.05883 33.7308 10.6765 33.7308 12.7563V21.7227H29.8484V13.2647C29.8484 12.063 29.5249 11.0924 28.9241 10.4454C28.3232 9.79833 27.4913 9.4748 26.4283 9.4748C25.3652 9.4748 24.4871 9.79833 23.8863 10.4454C23.2854 11.0924 22.9619 12.063 22.9619 13.2647V21.7227H19.0795V6.37816H22.9619V8.27311C23.4703 7.62606 24.1173 7.07143 24.9493 6.70169C25.735 6.33194 26.6131 6.14706 27.5837 6.14706C29.3862 6.14706 30.8652 6.7479 32.0207 7.90337Z" fill="white"/>
<path d="M48.0123 21.7227L42.7896 15.2059V21.7227H38.9073V1.20168H42.7896V12.895L47.9661 6.37815H53.0039L46.256 14.0966L53.0501 21.7227H48.0123Z" fill="white"/>
<path d="M62.3863 9.56723V17.0084C62.3863 17.5168 62.5249 17.8866 62.756 18.1177C62.9871 18.3487 63.4031 18.4874 64.0039 18.4874H65.8064V21.7227H63.3568C60.0753 21.7227 58.4577 20.1513 58.4577 16.9622V9.56723H56.6089V6.37816H58.4577V2.58824H62.3863V6.37816H65.8064V9.56723H62.3863Z" fill="white"/>
<path d="M92.7056 6.37816L88.2224 21.7227H84.0165L81.1972 11L78.4241 21.7227H74.2182L69.6888 6.37816H73.6173L76.3442 18.0714L79.3022 6.37816H83.4157L86.2812 18.0714L89.0081 6.37816H92.7056Z" fill="white"/>
<path d="M99.0375 21.0294C97.8358 20.3824 96.9115 19.458 96.2644 18.2563C95.5711 17.0546 95.2476 15.6681 95.2476 14.0966C95.2476 12.5252 95.6173 11.1387 96.3106 9.93698C97.0039 8.7353 97.9283 7.81093 99.13 7.16387C100.332 6.51681 101.672 6.19328 103.151 6.19328C104.63 6.19328 105.97 6.51681 107.172 7.16387C108.374 7.81093 109.344 8.7353 110.038 9.93698C110.731 11.1387 111.101 12.5252 111.101 14.0966C111.101 15.6681 110.731 17.0546 110.038 18.2563C109.344 19.458 108.374 20.3824 107.172 21.0294C105.97 21.6765 104.63 22 103.105 22C101.533 22 100.239 21.6765 99.0375 21.0294ZM105 18.0714C105.601 17.7479 106.109 17.2395 106.479 16.5462C106.848 15.8529 107.033 15.021 107.033 14.0504C107.033 12.5714 106.664 11.4622 105.878 10.6765C105.092 9.89076 104.168 9.52101 103.059 9.52101C101.949 9.52101 101.025 9.93698 100.285 10.6765C99.5459 11.4622 99.1762 12.5714 99.1762 14.0504C99.1762 15.5294 99.5459 16.6387 100.285 17.4244C101.025 18.2101 101.949 18.6261 103.059 18.6261C103.752 18.6261 104.399 18.4412 105 18.0714Z" fill="white"/>
</g>
<defs>
<clipPath id="clip0_17_130">
<rect width="110.185" height="22" fill="white" transform="translate(0.869446)"/>
</clipPath>
</defs>
</svg>
