<svg width="89" height="22" viewBox="0 0 89 22" fill="none" xmlns="http://www.w3.org/2000/svg">
<g clip-path="url(#clip0_9_50)">
<path d="M10.6266 8.49273V5.27061C10.6266 3.62755 10.2425 2.34724 9.45296 1.4937C8.66343 0.640156 7.48982 0.192047 5.9321 0.192047H0V21.808H5.78274C7.57517 21.808 8.83414 21.2532 9.53831 20.1436C10.2638 19.0339 10.6052 17.4549 10.6052 15.4064V13.5073C9.55965 13.1445 8.8128 12.1629 8.8128 11.0107C8.8128 9.85839 9.58099 8.85548 10.6266 8.49273ZM6.29486 16.8361C6.29486 17.6043 5.88943 17.9884 5.0999 17.9884H4.35306V3.96896H4.8225C5.41998 3.96896 5.80407 4.07566 5.99612 4.28904C6.18817 4.50243 6.29486 4.97187 6.29486 5.67604V16.8361Z" fill="white"/>
<path d="M18.5432 12.5044V16.388C18.5432 16.8788 18.4578 17.2629 18.3084 17.5616C18.1591 17.8603 17.903 18.0097 17.5189 18.0097C17.1988 18.0097 16.9428 17.8817 16.7721 17.6469C16.6013 17.4122 16.516 16.9855 16.516 16.388V5.56935C16.516 5.07856 16.58 4.69447 16.7294 4.41707C16.8574 4.11833 17.1348 3.9903 17.5402 3.9903C17.8817 3.9903 18.1377 4.09699 18.3084 4.33172C18.4791 4.56644 18.5432 4.99321 18.5432 5.63337V8.83414H22.8322V5.07856C22.8322 3.94762 22.5975 3.00873 22.1494 2.24054C21.6799 1.4937 21.0611 0.938894 20.2716 0.554801C19.4607 0.192047 18.5645 0 17.5402 0C15.6625 0 14.3181 0.554801 13.4859 1.6644C12.6537 2.77401 12.2483 4.37439 12.2483 6.48691V8.47139C13.3579 8.79146 14.1474 9.81571 14.1474 11.0107C14.1474 12.2056 13.3366 13.2299 12.2483 13.55V16.452C12.2483 18.2017 12.7177 19.5674 13.678 20.549C14.6382 21.5306 15.8972 22 17.4549 22C19.162 22 20.5063 21.5732 21.4665 20.7197C22.4268 19.8661 22.8962 18.4791 22.8962 16.58V12.5044H18.5432Z" fill="white"/>
<path d="M33.6508 4.73715C32.6692 3.71291 31.3249 3.17944 29.5965 3.17944C27.8681 3.17944 26.5237 3.69157 25.5635 4.73715C24.5819 5.78274 24.1125 7.14841 24.1125 8.89816V16.2813C24.1125 20.0795 25.9476 21.9787 29.6178 21.9787C33.288 21.9787 35.1232 20.0795 35.1232 16.2813V8.89816C35.1232 7.16974 34.6324 5.78274 33.6508 4.73715ZM30.6421 17.1988C30.6421 17.6043 30.5567 17.9457 30.4073 18.2231C30.258 18.5005 29.9806 18.6285 29.6178 18.6285C29.2551 18.6285 28.9777 18.5005 28.8283 18.2231C28.6789 17.9457 28.5936 17.6256 28.5936 17.1988V8.19399C28.5936 7.12707 28.935 6.5936 29.6178 6.5936C30.3007 6.5936 30.6421 7.12707 30.6421 8.19399V17.1988Z" fill="white"/>
<path d="M46.6887 4.37439C46.1125 3.58487 45.195 3.20078 43.9147 3.20078C43.1251 3.20078 42.5063 3.45684 42.0582 3.94762C41.6101 4.43841 41.3114 5.03589 41.1407 5.74006V3.39282H36.7449V21.808H41.1407V8.85548C41.1407 8.51406 41.162 8.17265 41.2047 7.80989C41.2474 7.46848 41.3541 7.16974 41.5034 6.93501C41.6741 6.70029 41.9089 6.5936 42.2503 6.5936C42.613 6.5936 42.8691 6.74297 43.0185 7.06304C43.1678 7.36178 43.2318 7.7032 43.2318 8.06595V21.808H47.5636V7.59651C47.5422 6.23084 47.2648 5.16392 46.6887 4.37439Z" fill="white"/>
<path d="M55.5441 7.44714V4.09699H54.3065V0.192047H50.0388V4.09699H48.8011V7.44714H50.0388V18.9273C50.0388 19.9728 50.2522 20.741 50.6576 21.2318C51.063 21.7439 51.8739 21.9787 53.0475 21.9787C53.581 21.9787 54.1144 21.936 54.6266 21.8293C55.1387 21.7439 55.4588 21.6799 55.5441 21.6372V18.6499C55.3947 18.6712 55.2027 18.6925 55.0107 18.6925C54.7333 18.6925 54.5412 18.6285 54.4559 18.5005C54.3492 18.3725 54.3065 18.1591 54.3065 17.8603V7.40446H55.5441V7.44714Z" fill="white"/>
<path d="M62.5431 3.77691C62.0097 4.18234 61.6256 4.73715 61.4122 5.44132V3.39282H56.9525V21.8079H61.4122V7.72454C61.4122 7.55383 61.6042 7.40446 61.9883 7.27643C62.3724 7.1484 62.7992 7.0417 63.3113 6.95635C63.8021 6.871 64.2502 6.84966 64.5916 6.84966V3.1581C63.7594 3.1581 63.0766 3.37148 62.5431 3.77691Z" fill="white"/>
<path d="M75.0689 4.73715C74.0873 3.71291 72.743 3.17944 71.0145 3.17944C69.2861 3.17944 67.9418 3.69157 66.9816 4.73715C66 5.78274 65.5092 7.14841 65.5092 8.89816V16.2813C65.5092 20.0795 67.3443 21.9787 71.0145 21.9787C74.6848 21.9787 76.5199 20.0795 76.5199 16.2813V8.89816C76.5199 7.16974 76.0291 5.78274 75.0689 4.73715ZM72.0388 17.1988C72.0388 17.6043 71.9534 17.9457 71.8041 18.2231C71.6334 18.4792 71.3773 18.6285 71.0145 18.6285C70.6518 18.6285 70.3744 18.5005 70.225 18.2231C70.0757 17.967 69.9903 17.6256 69.9903 17.1988V8.19399C69.9903 7.12707 70.3317 6.5936 71.0145 6.5936C71.6974 6.5936 72.0388 7.12707 72.0388 8.19399V17.1988Z" fill="white"/>
<path d="M78.1416 0.192047V21.808H82.6013V0.192047H78.1416Z" fill="white"/>
<path d="M84.3938 0.192047V21.808H88.8535V0.192047H84.3938Z" fill="white"/>
</g>
<defs>
<clipPath id="clip0_9_50">
<rect width="88.8535" height="22" fill="white"/>
</clipPath>
</defs>
</svg>
