<svg width="107" height="32" viewBox="0 0 107 32" fill="none" xmlns="http://www.w3.org/2000/svg">
<path d="M18.8557 11.9596C18.8557 13.468 18.0476 16.1616 16.8624 18.4781C16.0543 17.4007 15.5156 15.8923 15.5156 14.1145C15.5156 11.5286 16.5931 10.128 17.6705 10.128C18.4247 10.0741 18.8557 10.7744 18.8557 11.9596Z" fill="white"/>
<path d="M19.0707 0C10.2357 0 3.07071 7.16498 3.07071 16C3.07071 18.0471 3.44781 20.0404 4.14815 21.8182C1.77778 22.303 0 24.3502 0 26.8822C0 29.7374 2.3165 32 5.11785 32C7.16498 32 8.94276 30.7609 9.75084 29.037C12.3906 30.9226 15.569 32 19.0168 32C27.8519 32 35.0168 24.835 35.0168 16C35.0707 7.16498 27.9057 0 19.0707 0ZM25.9125 9.48148C26.2357 9.10438 26.7205 8.83502 27.2593 8.83502C28.1751 8.83502 29.037 9.58923 29.037 10.5589C29.037 11.4747 28.229 12.3367 27.2593 12.3367C26.7205 12.3367 26.2357 12.0673 25.9125 11.6364C25.6431 11.3131 25.5354 10.936 25.5354 10.5589C25.5354 10.1279 25.697 9.75084 25.9125 9.48148ZM24.0808 23.7037C23.7037 23.7037 23.3805 23.6498 23.1111 23.5421C22.2492 23.2189 21.7104 22.3569 21.8721 20.9024C20.9562 21.4949 19.8249 21.8182 18.532 21.5488C17.5084 22.9495 16.2694 24.0808 14.8148 24.6734C14.0067 24.9966 13.1987 25.2121 12.3367 25.2121C9.15825 25.2121 7.97306 22.7879 7.97306 20.0943C7.97306 17.5084 9.10438 13.899 11.2054 11.3131C11.2593 13.1448 11.4209 14.8687 11.6902 16.5387C11.2054 17.8855 10.8822 19.2862 10.8822 20.3636C10.8822 21.6566 11.3131 22.8418 12.4983 22.8418C12.8215 22.8418 13.1987 22.734 13.5219 22.5724C14.2761 22.1953 15.0842 21.3872 15.7845 20.3636C15.7845 20.3636 12.8754 18.3704 13.0909 13.3603C13.1987 11.0976 14.4377 8.83502 14.7609 8.56566C14.8687 8.40404 15.0303 8.24242 15.1919 8.08081C15.9461 7.3266 16.9158 6.89562 18.101 6.89562C20.0404 6.89562 21.9798 8.18855 21.9798 11.6902C21.9798 14.1145 21.1717 17.2929 19.6633 19.9327C21.3333 20.0404 22.303 18.8552 22.7879 18.101L24.7811 13.1448H27.9596L25.5354 19.2323C24.6195 21.4949 24.9966 21.7643 25.3199 21.7643C26.1279 21.7643 27.4747 20.3636 28.8754 17.9394C29.3064 17.9933 29.8451 18.3704 30.0067 18.7475C28.3367 21.4411 26.3434 23.7037 24.0808 23.7037Z" fill="white"/>
<path d="M46.6529 21.1717V6.94952H42.2354V25.1044H52.471V21.1717H46.6529Z" fill="white"/>
<path d="M60.0669 16.9697V25.1044H55.6494V16.9697H60.0669Z" fill="white"/>
<path d="M85.9791 12.1751C87.0566 13.2525 87.5953 14.761 87.5953 16.7004V25.1583H83.1778V17.2929C83.1778 16.3771 82.9084 15.6229 82.4236 15.1381C81.9387 14.6532 81.2384 14.3839 80.3764 14.3839C79.5145 14.3839 78.8141 14.6532 78.3293 15.1381C77.8444 15.6229 77.5751 16.3771 77.5751 17.2929V25.1044H73.2653V17.2929C73.2653 16.3771 72.996 15.6229 72.5111 15.1381C72.0263 14.6532 71.3259 14.3839 70.464 14.3839C69.602 14.3839 68.9017 14.6532 68.4168 15.1381C67.932 15.6229 67.6626 16.3771 67.6626 17.2929V25.1044H63.2451V10.6667H67.6626V12.4983C68.0936 11.9057 68.6862 11.4209 69.4404 11.0438C70.1407 10.6667 71.0027 10.5051 71.9185 10.5051C72.996 10.5051 73.9657 10.7206 74.8276 11.2054C75.6896 11.6903 76.336 12.3367 76.8209 13.1987C77.3057 12.3906 78.0061 11.7441 78.868 11.2593C79.73 10.7744 80.6458 10.5051 81.6694 10.5051C83.501 10.5589 84.9017 11.0977 85.9791 12.1751Z" fill="white"/>
<path d="M105.158 13.9529C104.62 12.8216 103.811 11.9597 102.896 11.3671C101.926 10.7745 100.848 10.4512 99.6633 10.4512C98.6397 10.4512 97.7778 10.6667 96.9697 11.0977C96.2155 11.5287 95.6229 12.0674 95.1919 12.7139V10.6667H90.7744V32.0001H95.1919V23.1112C95.6229 23.7576 96.2155 24.2964 96.9697 24.7273C97.7239 25.1583 98.6397 25.3199 99.6094 25.3199C100.795 25.3199 101.872 24.9967 102.842 24.4041C103.811 23.8115 104.566 22.8957 105.104 21.7644C105.643 20.6331 105.966 19.3401 105.966 17.8317C105.966 16.3233 105.697 15.0842 105.158 13.9529ZM101.495 17.8856C101.495 18.963 101.172 19.8788 100.579 20.5253C99.9865 21.1718 99.2323 21.495 98.3165 21.495C97.4007 21.495 96.7003 21.1718 96.0539 20.5253C95.4613 19.8788 95.1381 19.0169 95.1381 17.9394C95.1381 16.862 95.4613 15.9462 96.0539 15.2997C96.6465 14.6533 97.4007 14.33 98.3165 14.33C98.6936 14.33 99.0168 14.3839 99.2862 14.4916C99.3401 14.2223 99.4478 14.0068 99.6094 13.7913C99.8249 13.5219 100.148 13.4142 100.471 13.4142C100.795 13.4142 101.118 13.5219 101.333 13.7913C101.549 14.0607 101.657 14.33 101.657 14.7071C101.657 15.0842 101.549 15.4075 101.333 15.6768C101.226 15.7846 101.118 15.8384 101.064 15.8923C101.333 16.4849 101.495 17.1314 101.495 17.8856Z" fill="white"/>
<path d="M55.973 14.8149C55.4881 14.3839 55.2188 13.7913 55.2188 13.1448C55.2188 12.4445 55.4881 11.9058 55.973 11.4209C56.4578 10.9899 57.1043 10.7206 57.8585 10.7206C58.6127 10.7206 59.2592 10.9361 59.744 11.4209C60.2289 11.9058 60.4982 12.4445 60.4982 13.1448C60.4982 13.7913 60.2289 14.3839 59.744 14.8149C59.2592 15.2458 58.6127 15.5152 57.8585 15.5152C57.1043 15.4613 56.4578 15.2458 55.973 14.8149Z" fill="white"/>
</svg>
