<svg width="150" height="32" viewBox="0 0 150 32" fill="none" xmlns="http://www.w3.org/2000/svg">
<g clip-path="url(#clip0_2670_12)">
<path d="M20.1766 22.2035C20.1766 23.8311 19.8695 25.2438 19.2553 26.4722C18.6411 27.7006 17.8426 28.714 16.7985 29.5432C15.7543 30.3724 14.5566 30.9866 13.1747 31.3858C11.7927 31.785 10.3186 32 8.72169 32C7.64683 32 6.66411 31.9079 5.7428 31.7236C4.8215 31.5393 4.02303 31.3244 3.3167 31.0787C2.61036 30.833 2.02687 30.5873 1.56622 30.3109C1.10557 30.0345 0.767754 29.7889 0.552783 29.6046C0.337812 29.3896 0.184261 29.1132 0.122841 28.714C0.0307102 28.3455 0 27.762 0 27.025C0 26.5336 0.0307102 26.1036 0.0614203 25.7965C0.0921305 25.4587 0.153551 25.1823 0.214971 24.9981C0.276392 24.7831 0.368522 24.6296 0.491363 24.5681C0.614203 24.4453 0.737044 24.4146 0.921305 24.4146C1.13628 24.4146 1.47409 24.5374 1.87332 24.8138C2.27255 25.0902 2.79463 25.3666 3.43954 25.6737C4.08445 25.9808 4.8215 26.2879 5.71209 26.5336C6.60269 26.81 7.61612 26.9328 8.78311 26.9328C9.55086 26.9328 10.2265 26.8407 10.8407 26.6564C11.4549 26.4722 11.9463 26.2265 12.3762 25.8887C12.8061 25.5509 13.1132 25.1516 13.3589 24.6603C13.5739 24.1689 13.6967 23.6161 13.6967 23.0019C13.6967 22.2956 13.5125 21.7121 13.1132 21.19C12.7447 20.6987 12.2226 20.238 11.6084 19.8388C10.9942 19.4395 10.2879 19.071 9.52015 18.7332C8.7524 18.3954 7.92322 18.0269 7.09405 17.6583C6.26488 17.2898 5.46641 16.8292 4.66795 16.3685C3.90019 15.8772 3.19386 15.2937 2.57965 14.618C1.96545 13.9424 1.47409 13.144 1.07486 12.2226C0.706334 11.3013 0.491363 10.1958 0.491363 8.90595C0.491363 7.43186 0.767754 6.11132 1.32054 5.00576C1.87332 3.86948 2.61036 2.94818 3.53167 2.21113C4.45298 1.47409 5.58925 0.921305 6.87908 0.552783C8.1382 0.184261 9.48944 0 10.9021 0C11.6392 0 12.3762 0.0614203 13.1132 0.153551C13.8196 0.276392 14.4952 0.429942 15.1401 0.614203C15.785 0.798464 16.3378 1.01344 16.8292 1.25912C17.3205 1.5048 17.6583 1.68906 17.8119 1.84261C17.9655 1.99616 18.0883 2.14971 18.119 2.24184C18.1804 2.36468 18.2111 2.48752 18.2726 2.67178C18.3033 2.85605 18.334 3.07102 18.3647 3.37812C18.3954 3.65451 18.3954 3.99232 18.3954 4.42226C18.3954 4.88292 18.3954 5.28215 18.3647 5.58925C18.334 5.89635 18.3033 6.17274 18.2418 6.38772C18.1804 6.60269 18.119 6.75624 17.9962 6.84837C17.904 6.9405 17.7505 7.00192 17.5662 7.00192C17.382 7.00192 17.1056 6.87908 16.737 6.66411C16.3685 6.44914 15.8772 6.20345 15.3244 5.92706C14.7716 5.65067 14.1267 5.4357 13.3896 5.22073C12.6526 5.00576 11.8541 4.91363 10.9635 4.91363C10.2879 4.91363 9.6737 5.00576 9.18234 5.15931C8.66027 5.31286 8.26104 5.55854 7.89251 5.86564C7.5547 6.17274 7.30902 6.51056 7.12476 6.9405C6.97121 7.33973 6.87908 7.80038 6.87908 8.26104C6.87908 8.93666 7.06334 9.55086 7.43186 10.0422C7.80038 10.5336 8.32246 10.9942 8.93666 11.3935C9.55086 11.7927 10.2879 12.1612 11.0864 12.499C11.8848 12.8369 12.6833 13.2054 13.5125 13.5739C14.3417 13.9424 15.1401 14.4031 15.9386 14.8637C16.737 15.3551 17.4434 15.9386 18.0576 16.6142C18.6718 17.2898 19.1939 18.0883 19.5624 19.0096C19.9923 19.8695 20.1766 20.9443 20.1766 22.2035Z" fill="#2563EB"/>
<path d="M31.2936 30.5873C31.2936 30.7409 31.2322 30.8944 31.1401 31.0173C31.048 31.1401 30.8637 31.263 30.618 31.3244C30.3723 31.4165 30.0652 31.4779 29.666 31.5086C29.2668 31.5701 28.7447 31.5701 28.1305 31.5701C27.5163 31.5701 27.0249 31.5393 26.6257 31.5086C26.2265 31.4779 25.8886 31.3858 25.6737 31.3244C25.428 31.2322 25.2744 31.1401 25.1516 31.0173C25.0595 30.8944 24.998 30.7409 24.998 30.5873V1.41267C24.998 1.25912 25.0595 1.10557 25.1516 0.982726C25.2437 0.859886 25.428 0.737045 25.6737 0.675624C25.9194 0.583494 26.2572 0.522074 26.6257 0.491363C27.0249 0.429943 27.5163 0.429943 28.1305 0.429943C28.7447 0.429943 29.2668 0.460653 29.666 0.491363C30.0652 0.552784 30.3723 0.614204 30.618 0.675624C30.8637 0.767755 31.0172 0.859886 31.1401 0.982726C31.2322 1.10557 31.2936 1.25912 31.2936 1.41267V30.5873Z" fill="#2563EB"/>
<path d="M56.3533 22.2035C56.3533 23.8311 56.0462 25.2438 55.432 26.4722C54.8178 27.7006 54.0194 28.714 52.9752 29.5432C51.9311 30.3724 50.7334 30.9866 49.3514 31.3858C47.9695 31.785 46.4954 32 44.8984 32C43.8236 32 42.8409 31.9079 41.9196 31.7236C40.9983 31.5393 40.1998 31.3244 39.4935 31.0787C38.7871 30.833 38.2036 30.5873 37.743 30.3109C37.2823 30.0345 36.9445 29.7889 36.7295 29.6046C36.5146 29.3896 36.361 29.1132 36.2996 28.714C36.2075 28.3148 36.1768 27.762 36.1768 27.025C36.1768 26.5336 36.2075 26.1036 36.2382 25.7965C36.2689 25.4587 36.3303 25.1823 36.3917 24.9981C36.4531 24.7831 36.5453 24.6296 36.6681 24.5681C36.791 24.476 36.9138 24.4453 37.0981 24.4453C37.313 24.4453 37.6508 24.5681 38.0501 24.8445C38.4493 25.1209 38.9714 25.3973 39.6163 25.7044C40.2612 26.0115 40.9983 26.3186 41.8888 26.5643C42.7794 26.8407 43.7929 26.9635 44.9599 26.9635C45.7276 26.9635 46.4032 26.8714 47.0174 26.6871C47.6317 26.5029 48.123 26.2572 48.553 25.9194C48.9829 25.5816 49.29 25.1823 49.5357 24.691C49.7507 24.1996 49.8735 23.6468 49.8735 23.0326C49.8735 22.3263 49.6892 21.7428 49.29 21.2207C48.9215 20.7294 48.3994 20.2687 47.7852 19.8695C47.171 19.4702 46.4647 19.1017 45.6969 18.7639C44.9292 18.4261 44.1 18.0576 43.2708 17.6891C42.4416 17.3205 41.6432 16.8599 40.8447 16.3992C40.0769 15.9079 39.3706 15.3244 38.7564 14.6488C38.1422 13.9731 37.6508 13.1747 37.2516 12.2534C36.8831 11.3321 36.6681 10.2265 36.6681 8.93666C36.6681 7.46257 36.9445 6.14203 37.4973 5.03647C38.0501 3.90019 38.7871 2.97889 39.7084 2.24184C40.6297 1.5048 41.766 0.921305 43.0251 0.552783C44.2842 0.184261 45.6355 0 47.0482 0C47.7852 0 48.5222 0.0614203 49.2593 0.153551C49.9963 0.276392 50.672 0.429942 51.3169 0.614203C51.9618 0.798464 52.5146 1.01344 53.0059 1.25912C53.4973 1.5048 53.8351 1.68906 53.9887 1.84261C54.1422 1.99616 54.265 2.14971 54.2958 2.24184C54.3572 2.36468 54.3879 2.48752 54.4493 2.67178C54.48 2.85605 54.5107 3.07102 54.5414 3.37812C54.5722 3.65451 54.5721 3.99232 54.5721 4.42226C54.5721 4.88292 54.5722 5.28215 54.5414 5.58925C54.5107 5.89635 54.48 6.17274 54.4186 6.38772C54.3572 6.60269 54.2958 6.75624 54.1729 6.84837C54.0808 6.9405 53.9272 7.00192 53.743 7.00192C53.5587 7.00192 53.2823 6.87908 52.9138 6.66411C52.5453 6.44914 52.0539 6.20345 51.5011 5.92706C50.9483 5.65067 50.3034 5.4357 49.5664 5.22073C48.8293 5.00576 48.0309 4.91363 47.1403 4.91363C46.4647 4.91363 45.8505 5.00576 45.3591 5.15931C44.837 5.31286 44.4378 5.55854 44.0693 5.86564C43.7315 6.17274 43.4858 6.51056 43.3015 6.9405C43.148 7.33973 43.0558 7.80038 43.0558 8.26104C43.0558 8.93666 43.2401 9.55086 43.6086 10.0422C43.9771 10.5336 44.4992 10.9942 45.1134 11.3935C45.7276 11.7927 46.4647 12.1612 47.2631 12.499C48.0616 12.8369 48.8601 13.2054 49.6892 13.5739C50.5184 13.9424 51.3169 14.4031 52.1153 14.8637C52.9138 15.3551 53.6201 15.9386 54.2343 16.6142C54.8485 17.2898 55.3706 18.0883 55.7391 19.0096C56.1691 19.8695 56.3533 20.9443 56.3533 22.2035Z" fill="#2563EB"/>
<path d="M86.6336 29.2668C86.6336 29.6353 86.5722 29.9731 86.4493 30.2495C86.3265 30.5259 86.1422 30.7716 85.9273 30.9559C85.7123 31.1401 85.4666 31.2937 85.1595 31.3858C84.8524 31.4779 84.576 31.5086 84.2689 31.5086H81.5971C81.0443 31.5086 80.553 31.4472 80.1537 31.3551C79.7545 31.2322 79.386 31.048 79.0175 30.7409C78.6796 30.4338 78.3418 30.0345 78.0347 29.5432C77.7276 29.0518 77.3591 28.4069 76.9599 27.6084L69.2823 13.144C68.8217 12.2841 68.3917 11.3628 67.9311 10.3493C67.4704 9.3666 67.0405 8.38388 66.7027 7.43186H66.6413C66.7027 8.56814 66.7641 9.73513 66.7948 10.8714C66.8255 12.0077 66.8562 13.1747 66.8562 14.4031V30.5873C66.8562 30.7409 66.8255 30.8944 66.7334 31.0173C66.6413 31.1401 66.4877 31.263 66.2727 31.3244C66.0578 31.4165 65.7814 31.4779 65.4129 31.5393C65.0443 31.6008 64.5837 31.6008 64.0002 31.6008C63.4474 31.6008 62.9868 31.5701 62.6182 31.5393C62.2497 31.4779 61.9733 31.4165 61.7584 31.3244C61.5434 31.2322 61.4205 31.1401 61.3284 31.0173C61.2363 30.8944 61.2056 30.7409 61.2056 30.5873V2.79463C61.2056 2.05758 61.4205 1.47409 61.8505 1.10557C62.2804 0.737045 62.8332 0.552784 63.4781 0.552784H66.8562C67.4704 0.552784 67.9618 0.614204 68.3917 0.706335C68.791 0.798465 69.1902 0.982726 69.4973 1.22841C69.8351 1.47409 70.1422 1.8119 70.4186 2.21113C70.695 2.64108 71.0021 3.16315 71.3092 3.77735L77.3284 15.0787C77.6662 15.7543 78.0347 16.4299 78.3726 17.1056C78.7104 17.7812 79.0482 18.4261 79.3553 19.1017C79.6624 19.7774 79.9695 20.4223 80.2766 21.0365C80.5837 21.6814 80.8601 22.2956 81.1672 22.9405H81.1979C81.1365 21.8349 81.1058 20.6679 81.1058 19.4395C81.075 18.2418 81.075 17.0749 81.075 15.9693V1.47409C81.075 1.32054 81.1365 1.16699 81.2286 1.04415C81.3207 0.921306 81.4743 0.798465 81.72 0.706335C81.9349 0.614204 82.242 0.552784 82.6106 0.491363C82.9791 0.460653 83.4397 0.429943 84.0232 0.429943C84.576 0.429943 85.0059 0.460653 85.3745 0.491363C85.743 0.522074 86.0194 0.614204 86.2344 0.706335C86.4186 0.798465 86.5722 0.921306 86.6643 1.04415C86.7564 1.16699 86.7871 1.32054 86.7871 1.47409V29.2668H86.6336Z" fill="black"/>
<path d="M149.374 30.6488C149.374 30.833 149.343 30.9559 149.282 31.0787C149.221 31.2015 149.067 31.2937 148.821 31.3858C148.576 31.4779 148.238 31.5086 147.777 31.5393C147.317 31.5701 146.672 31.6008 145.904 31.6008C145.228 31.6008 144.706 31.5701 144.307 31.5393C143.908 31.5086 143.601 31.4472 143.355 31.3551C143.109 31.263 142.956 31.1708 142.864 31.0173C142.771 30.8944 142.679 30.7102 142.618 30.5259L139.854 23.6161C139.516 22.8484 139.178 22.142 138.871 21.5278C138.564 20.9136 138.196 20.4223 137.796 20.023C137.397 19.6238 136.967 19.3167 136.445 19.1017C135.923 18.8868 135.34 18.7946 134.664 18.7946H132.698V30.5566C132.698 30.7102 132.637 30.8637 132.545 30.9866C132.453 31.1094 132.269 31.2322 132.023 31.2937C131.777 31.3858 131.47 31.4472 131.071 31.4779C130.672 31.5393 130.15 31.5393 129.535 31.5393C128.921 31.5393 128.43 31.5086 128.031 31.4779C127.631 31.4472 127.293 31.3551 127.078 31.2937C126.833 31.2015 126.679 31.1094 126.587 30.9866C126.495 30.8637 126.434 30.7102 126.434 30.5566V2.51823C126.434 1.8119 126.618 1.32054 126.986 1.01344C127.355 0.706335 127.785 0.552784 128.307 0.552784H136.322C137.121 0.552784 137.796 0.583494 138.318 0.614204C138.84 0.644914 139.332 0.675625 139.762 0.737045C140.99 0.921306 142.126 1.22841 143.109 1.65835C144.092 2.08829 144.952 2.64108 145.627 3.34741C146.334 4.05374 146.856 4.85221 147.224 5.80422C147.593 6.75624 147.777 7.8311 147.777 9.0595C147.777 10.1036 147.654 11.025 147.378 11.8848C147.102 12.7447 146.733 13.5125 146.211 14.1574C145.689 14.833 145.075 15.4165 144.338 15.9079C143.601 16.3992 142.741 16.7985 141.789 17.1056C142.249 17.3205 142.679 17.5969 143.079 17.904C143.478 18.2111 143.877 18.6104 144.215 19.071C144.583 19.5317 144.921 20.0537 145.228 20.6372C145.535 21.2207 145.842 21.8656 146.15 22.6027L148.76 28.6833C149.006 29.2975 149.159 29.7274 149.251 30.0038C149.343 30.2802 149.374 30.4952 149.374 30.6488ZM141.297 9.67371C141.297 8.66027 141.052 7.80039 140.591 7.09405C140.13 6.38772 139.363 5.89635 138.318 5.61996C138.011 5.52783 137.643 5.46641 137.244 5.4357C136.844 5.37428 136.292 5.37428 135.555 5.37428H132.729V14.1267H135.923C136.814 14.1267 137.581 14.0345 138.257 13.8196C138.933 13.6046 139.485 13.2975 139.915 12.8983C140.376 12.499 140.683 12.0384 140.929 11.5163C141.174 10.9328 141.297 10.3493 141.297 9.67371Z" fill="black"/>
<path d="M120.261 8.69098C119.647 6.72553 118.726 5.09789 117.528 3.80806C116.33 2.51823 114.825 1.56622 113.044 0.952013C111.263 0.33781 109.175 0.0307083 106.841 0.0307083C104.384 0.0307083 102.234 0.39923 100.392 1.16698C98.5489 1.90403 96.9827 2.97888 95.7236 4.39155C94.4645 5.80422 93.5125 7.49328 92.8675 9.48944C92.2226 11.4856 91.9155 13.7274 91.9155 16.2457C91.9155 18.9789 92.2226 21.3129 92.8061 23.309C93.3896 25.3052 94.3109 26.9328 95.5086 28.2226C96.7063 29.5125 98.2111 30.4645 99.9923 31.1094C101.773 31.7236 103.893 32.0614 106.288 32.0614C108.714 32.0614 110.864 31.6929 112.737 30.9559C114.58 30.2188 116.146 29.144 117.405 27.7313C118.664 26.3186 119.616 24.5988 120.261 22.572C120.906 20.5451 121.213 18.2418 121.213 15.6929C121.182 12.9597 120.875 10.6564 120.261 8.69098ZM98.8867 11.762C99.1631 10.4722 99.5931 9.33589 100.238 8.35317C100.883 7.37044 101.712 6.60269 102.756 6.01919C103.8 5.4357 105.09 5.15931 106.626 5.15931C107.916 5.15931 109.052 5.34357 109.973 5.71209L99.1017 21.3129C99.0403 21.0365 98.9482 20.7294 98.8867 20.4223C98.6411 19.071 98.5182 17.5662 98.5182 15.8772C98.5182 14.4338 98.6411 13.0518 98.8867 11.762ZM114.18 20.1766C113.904 21.4971 113.474 22.6334 112.829 23.6161C112.184 24.5988 111.355 25.3973 110.311 25.9501C109.267 26.5336 107.977 26.81 106.441 26.81C104.906 26.81 103.616 26.5643 102.603 26.0422C102.48 25.9808 102.357 25.9194 102.265 25.858L113.628 9.58157C113.873 10.1651 114.058 10.8407 114.18 11.547C114.426 12.8676 114.549 14.3416 114.549 15.9693C114.58 17.4741 114.457 18.856 114.18 20.1766Z" fill="black"/>
</g>
<defs>
<clipPath id="clip0_2670_12">
<rect width="149.374" height="32" fill="white"/>
</clipPath>
</defs>
</svg>
