<svg width="33" height="32" viewBox="0 0 33 32" fill="none" xmlns="http://www.w3.org/2000/svg">
<g clip-path="url(#clip0_17_111)">
<path d="M11.7986 0.330002C12.9796 0.330002 14.1165 0.506007 15.1871 0.935021C18.5205 2.26606 20.5735 4.69714 21.302 8.19525C21.4345 8.80027 21.4676 9.43829 21.4676 10.0653C21.4786 17.3035 21.4786 24.5308 21.4786 31.769C21.4786 31.835 21.4786 31.901 21.4786 32C21.1806 31.989 20.8936 31.989 20.6177 31.956C18.6419 31.769 16.8759 31.065 15.3527 29.7999C13.4432 28.2159 12.2842 26.2028 11.931 23.7497C11.8648 23.2767 11.8317 22.7927 11.8317 22.3087C11.8207 15.0595 11.8317 7.82124 11.8317 0.572009C11.7986 0.506007 11.7986 0.429005 11.7986 0.330002Z" fill="white"/>
<path d="M10.0877 11.8694C10.0877 18.4916 10.0877 25.0918 10.0877 31.703C6.87579 31.703 3.67487 31.703 0.440836 31.703C0.440836 31.637 0.429798 31.582 0.429798 31.516C0.429798 28.0949 0.396685 24.6738 0.440836 21.2637C0.473948 18.4806 1.59979 16.1595 3.67487 14.3004C5.10976 13.0024 6.80956 12.2434 8.73011 11.9574C9.01709 11.9134 9.31511 11.8914 9.60209 11.8804C9.75662 11.8584 9.91114 11.8694 10.0877 11.8694Z" fill="white"/>
<path d="M32.8695 12.1444C32.8695 12.2434 32.8695 12.3204 32.8695 12.3864C32.8695 15.7195 32.8805 19.0526 32.8695 22.3857C32.8584 24.9488 31.9533 27.1818 30.1763 29.0299C28.6089 30.6689 26.6663 31.615 24.4146 31.912C24.0835 31.956 23.7524 31.956 23.4212 31.989C23.2446 32.011 23.1674 31.956 23.2005 31.769C23.2005 31.747 23.2005 31.736 23.2005 31.714C23.2005 25.2788 23.2005 18.8326 23.2005 12.3974C23.2005 12.1114 23.1563 12.1334 23.4654 12.1334C26.5118 12.1334 29.5582 12.1334 32.6046 12.1334C32.6818 12.1444 32.7591 12.1444 32.8695 12.1444Z" fill="white"/>
<path d="M5.25327 9.6253C2.52697 9.6253 0.385662 7.37023 0.418775 4.70814C0.462926 2.13406 2.63734 -0.011004 5.26431 -3.65449e-06C7.99061 0.0109967 10.154 2.21107 10.0878 4.91715C10.0326 7.56823 7.85815 9.6363 5.25327 9.6253Z" fill="white"/>
<path d="M23.1894 3.16809C23.653 3.06909 24.3263 3.02509 24.9665 3.02509C25.9489 3.02509 26.589 3.20109 27.0416 3.6081C27.4058 3.92711 27.6045 4.41113 27.6045 4.96115C27.6045 5.90718 27.0085 6.52319 26.2579 6.7762V6.8092C26.8098 6.99621 27.1409 7.50223 27.3065 8.25025C27.5383 9.24028 27.7149 9.9333 27.8584 10.2083H26.8981C26.7767 10.0103 26.6221 9.39429 26.4235 8.50326C26.2138 7.52423 25.8274 7.15021 24.9886 7.11721H24.1166V10.2083H23.1894V3.16809ZM24.1166 6.41319H25.0658C26.0482 6.41319 26.6773 5.87417 26.6773 5.06015C26.6773 4.13612 26.004 3.74011 25.0327 3.72911C24.5912 3.72911 24.2711 3.77311 24.1166 3.81711V6.41319Z" fill="white"/>
<path d="M28.7745 9.08628C29.1939 9.33929 29.79 9.5483 30.4301 9.5483C31.3794 9.5483 31.9313 9.05328 31.9313 8.32726C31.9313 7.65624 31.5449 7.28223 30.5847 6.90821C29.4147 6.4902 28.6972 5.89618 28.6972 4.88415C28.6972 3.77312 29.6244 2.94809 31.0151 2.94809C31.7436 2.94809 32.2734 3.11309 32.5935 3.3001L32.3397 4.04812C32.1079 3.91612 31.6332 3.70711 30.982 3.70711C30.0107 3.70711 29.6354 4.29013 29.6354 4.77415C29.6354 5.44517 30.0659 5.76418 31.0593 6.14919C32.2734 6.6112 32.8805 7.19422 32.8805 8.23926C32.8805 9.33929 32.0637 10.2963 30.375 10.2963C29.6796 10.2963 28.929 10.0983 28.5537 9.84531L28.7745 9.08628Z" fill="white"/>
</g>
<defs>
<clipPath id="clip0_17_111">
<rect width="32.4507" height="32" fill="white" transform="translate(0.418762)"/>
</clipPath>
</defs>
</svg>
