<svg width="143" height="22" viewBox="0 0 143 22" fill="none" xmlns="http://www.w3.org/2000/svg">
<g clip-path="url(#clip0_9_61)">
<path d="M3.85065 13.5826C3.85065 16.5797 6.27384 18.9391 9.20717 18.9391H17.5608V21.9362H9.20717C4.61586 21.9362 0.853546 18.1739 0.853546 13.5826C0.853546 8.92754 4.61586 5.16522 9.20717 5.16522H17.5608V8.16232H9.20717C6.27384 8.16232 3.85065 10.5855 3.85065 13.5826Z" fill="white"/>
<path d="M36.4362 21.9362H33.0564L31.526 18.9391L27.8275 11.7971L24.1927 18.9391L22.6622 21.9362H19.2825L20.813 18.9391L27.8275 5.16522L34.842 18.9391L36.4362 21.9362Z" fill="white"/>
<path d="M54.8651 5.16522V21.9362H51.868V11.287L48.8709 13.5188L46.4477 15.4319L44.0245 13.5188L41.0912 11.287V21.9362H38.0941V5.16522L41.0912 7.46087L46.4477 11.6058L51.868 7.46087L54.8651 5.16522Z" fill="white"/>
<path d="M73.613 21.9362H70.297L68.7666 18.9391L65.068 11.7971L61.4332 18.9391L59.9028 21.9362H56.5231L58.0535 18.9391L65.068 5.16522L72.0825 18.9391L73.613 21.9362Z" fill="white"/>
<path d="M88.4709 19.0029V22H79.9898C79.1608 22 78.3318 21.8087 77.6303 21.4261C76.5463 20.9159 75.7173 20.0232 75.2072 19.0029C74.8245 18.3015 74.6332 17.4725 74.6332 16.6435V5.22899H77.6303V16.9623C77.7579 18.0464 78.5869 18.8754 79.6709 19.0029H88.4709Z" fill="white"/>
<path d="M94.1463 9.69276V11.2232H104.923V14.2203H94.1463V17.4087C94.1463 18.2377 94.8477 18.9391 95.6767 18.9391H107.92V21.9362H95.6767C93.1898 21.9362 91.1492 19.8957 91.1492 17.4087V9.69276C91.1492 7.2058 93.1898 5.16522 95.6767 5.16522H107.92V8.16232H95.6767C94.8477 8.16232 94.1463 8.86377 94.1463 9.69276Z" fill="white"/>
<path d="M126.668 21.9362H123.352L121.822 18.9391L118.123 11.7971L114.488 18.9391L112.958 21.9362H109.578L111.109 18.9391L118.123 5.16522L125.138 18.9391L126.668 21.9362Z" fill="white"/>
<path d="M142.419 13.5826C142.419 18.1739 138.656 21.9362 134.065 21.9362C129.474 21.9362 125.711 18.1739 125.711 13.5826C125.711 8.9913 129.474 5.22898 134.065 5.22898C138.656 5.16521 142.419 8.92753 142.419 13.5826ZM139.422 13.5826C139.422 10.5855 136.998 8.22608 134.065 8.22608C131.068 8.22608 128.709 10.6493 128.709 13.5826C128.709 16.5797 131.132 18.9391 134.065 18.9391C136.998 18.9391 139.422 16.5159 139.422 13.5826Z" fill="white"/>
<path d="M113.468 3.63478V1.27536C114.233 0.446375 115.126 0.0637665 116.083 0.0637665C116.465 0.0637665 116.784 0.127535 117.103 0.191303C117.422 0.255071 117.996 0.446375 118.825 0.828984C119.654 1.14782 120.227 1.33913 120.483 1.33913C120.801 1.33913 121.184 1.21159 121.63 1.02029C122.077 0.828984 122.523 0.510143 122.906 0.0637665V2.48696C122.651 2.74203 122.268 3.06087 121.758 3.31594C121.248 3.57101 120.738 3.69855 120.227 3.69855C119.909 3.69855 119.654 3.63478 119.335 3.57101C119.08 3.50724 118.633 3.31594 117.996 3.06087C117.103 2.67826 116.338 2.48696 115.827 2.48696C115.062 2.35942 114.233 2.8058 113.468 3.63478Z" fill="white"/>
</g>
<defs>
<clipPath id="clip0_9_61">
<rect width="141.565" height="22" fill="white" transform="translate(0.853546)"/>
</clipPath>
</defs>
</svg>
